<svg
   version="1.2"
   viewBox="0 0 300 300"
   width="300"
   height="300"
   xmlns="http://www.w3.org/2000/svg">
  <style>.a{fill:#5094f0}</style>
  <path
     class="a"
     d="M 150 19.703125 A 130.2966 130.2966 0 0 0 19.703125 150 A 130.2966 130.2966 0 0 0 150 280.29688 A 130.2966 130.2966 0 0 0 280.29688 150 A 130.2966 130.2966 0 0 0 150 19.703125 z M 209.63086 65.380859 A 25.03054 25.03054 0 0 1 227.30859 72.691406 A 25.029382 25.029382 0 0 1 227.30859 108.04688 C 227.22925 108.12698 227.14765 108.2038 227.06445 108.2793 L 179.27148 151.17188 L 186.46289 158.36133 A 18.750515 18.750515 0 0 1 186.46289 184.87695 L 126.55078 244.78906 A 6.251414 6.251414 0 0 1 117.71094 244.78906 L 55.210938 182.28906 A 6.250953 6.250953 0 0 1 55.210938 173.44922 L 115.12305 113.53711 A 18.750515 18.750515 0 0 1 141.63867 113.53711 L 148.83008 120.72852 L 191.7207 72.935547 C 191.79623 72.852359 191.87303 72.770746 191.95312 72.691406 A 25.03054 25.03054 0 0 1 209.63086 65.380859 z M 209.70703 77.867188 A 12.500125 12.500125 0 0 0 200.90039 81.423828 L 158.13281 129.07812 L 158.13086 129.07812 A 12.500695 12.500695 0 0 1 139.99023 129.56641 L 132.80078 122.37695 A 6.2477187 6.2477187 0 0 0 123.96289 122.37695 L 112.2207 134.11914 L 165.88086 187.7793 L 177.62305 176.03711 A 6.2477187 6.2477187 0 0 0 177.62305 167.19922 L 170.43359 160.00977 A 12.500695 12.500695 0 0 1 170.92188 141.86914 L 218.57617 99.099609 A 12.500125 12.500125 0 0 0 209.70703 77.867188 z M 103.38086 142.95898 L 68.470703 177.86914 L 80.384766 189.7832 L 100.33398 169.83398 A 6.2504209 6.2504209 0 0 1 109.17188 178.67383 L 89.224609 198.62305 L 102.25977 211.6582 L 122.20898 191.70898 A 6.2504174 6.2504174 0 0 1 131.04688 200.54883 L 111.09961 220.49805 L 122.13086 231.5293 L 157.04102 196.61914 L 103.38086 142.95898 z " />
</svg>
